<?xml version="1.0" encoding="utf-8"?>
<!-- Generator: Adobe Illustrator 16.0.4, SVG Export Plug-In . SVG Version: 6.00 Build 0)  -->
<!DOCTYPE svg PUBLIC "-//W3C//DTD SVG 1.1//EN" "http://www.w3.org/Graphics/SVG/1.1/DTD/svg11.dtd">
<svg version="1.1" xmlns="http://www.w3.org/2000/svg" xmlns:xlink="http://www.w3.org/1999/xlink" x="0px" y="0px" width="20px"
	 height="20px" viewBox="0 0 20 20" enable-background="new 0 0 20 20" xml:space="preserve">
<g id="Layer_1">
	<g>
		<g>
			<path fill-rule="evenodd" clip-rule="evenodd" fill="#2A718D" d="M17.734,2.266H2.266c-0.285,0-0.516,0.231-0.516,0.516v14.438
				c0,0.285,0.23,0.516,0.516,0.516h15.469c0.285,0,0.516-0.23,0.516-0.516V2.781C18.25,2.497,18.02,2.266,17.734,2.266z
				 M7.422,15.672H4.328c-0.285,0-0.516-0.23-0.516-0.516v-2.578h3.609V15.672z M7.422,11.547H3.812V8.453h3.609V11.547z
				 M7.422,7.422H3.812V4.844c0-0.285,0.23-0.516,0.516-0.516h3.094V7.422z M11.547,15.672H8.453v-3.094h3.094V15.672z
				 M16.188,11.547h-0.953c-0.244,0.391-0.473,0.743-0.666,1.031h1.619v2.578c0,0.285-0.23,0.516-0.516,0.516h-3.094v-3.094h0.91
				c-0.189-0.288-0.416-0.642-0.656-1.031h-0.254v-0.421c-0.357-0.602-0.725-1.261-1.031-1.903v2.324H8.453V8.453h2.76
				c-0.146-0.37-0.26-0.719-0.321-1.031H8.453V4.328h3.094v0.081c0.941-1.278,2.477-1.299,2.477-1.299s3.227,0.038,3.227,3.805
				c0,0.761-0.477,1.889-1.062,2.989V11.547z"/>
		</g>
		<path fill="#F68D50" d="M14.025,3.721c0,0-2.691,0.033-2.691,3.229c0,1.626,2.691,5.433,2.691,5.433s2.725-3.775,2.725-5.448
			C16.75,3.754,14.025,3.721,14.025,3.721z M14.041,7.507c-0.594,0-1.082-0.481-1.082-1.083c0-0.596,0.488-1.084,1.082-1.084
			c0.602,0,1.084,0.488,1.084,1.084C15.125,7.025,14.643,7.507,14.041,7.507z"/>
	</g>
</g>
<g id="Layer_2">
</g>
</svg>
